# xmcd
#
# Track frame offsets: 
#        150
#        17821
#        35669
#        55002
#        73672
#        92162
#        103621
#        124367
#        137334
#        161546
#        178960
#        195775
#
# Disc length: 2933 seconds
#
# Revision: 1
# Processed by: cddbd v1.5.2PL0 Copyright (c) Steve Scherf et al.
# Submitted via: ExactAudioCopyFreeDBPlugin 1.0
#
DISCID=a00b730c
DTITLE=Stepa - Made In Sodankyl‰
DYEAR=2010
DGENRE=Rap
TTITLE0=Hyvien Puolella
TTITLE1=Kiviranta
TTITLE2=Kaikki Hyvin
TTITLE3=Joskus Vuosien P‰‰st‰
TTITLE4=I Don't Give A Fuck (feat. Tapani Kansalainen)
TTITLE5=Kuolleet Miehet
TTITLE6=P‰ivi Paunun Lailla (feat. Tykopaatti, Edorf and Hannibal)
TTITLE7=Hullut J‰tk‰t (feat. Are and Tapani Kansalainen)
TTITLE8=Lastenlaulu
TTITLE9=Toiseksi Viimeiset Dollarit
TTITLE10=Ei (feat. Laineen Kasperi)
TTITLE11=Made In Sodankyl‰
EXTD=
EXTT0=
EXTT1=
EXTT2=
EXTT3=
EXTT4=
EXTT5=
EXTT6=
EXTT7=
EXTT8=
EXTT9=
EXTT10=
EXTT11=
PLAYORDER=
